<?xml version="1.0" standalone="no"?>
<!DOCTYPE svg PUBLIC "-//W3C//DTD SVG 20010904//EN"
 "http://www.w3.org/TR/2001/REC-SVG-20010904/DTD/svg10.dtd">
<svg version="1.0" xmlns="http://www.w3.org/2000/svg"
 width="24" height="24" viewBox="0 0 512.000000 512.000000" fill="white"
 preserveAspectRatio="xMidYMid meet">

<g transform="translate(0.000000,512.000000) scale(0.100000,-0.100000)"
 stroke="none">
<path d="M2370 5113 c-367 -36 -649 -115 -949 -264 -667 -331 -1152 -931
-1340 -1657 -93 -358 -104 -771 -31 -1133 157 -779 667 -1443 1375 -1790 189
-92 304 -136 488 -184 517 -136 1075 -105 1567 88 l105 41 651 -109 c479 -79
662 -106 690 -101 94 18 176 100 190 191 4 32 -23 217 -102 690 l-108 647 19
46 c85 219 137 410 172 632 26 173 24 537 -5 725 -43 277 -114 500 -241 760
-241 491 -636 893 -1123 1141 -295 150 -580 235 -907 269 -122 13 -359 17
-451 8z m472 -479 c938 -131 1670 -868 1794 -1807 22 -168 15 -486 -15 -642
-27 -145 -69 -285 -126 -420 -77 -181 -79 -123 20 -714 48 -287 85 -525 82
-528 -3 -3 -239 34 -524 82 -588 99 -537 98 -718 21 -248 -106 -441 -146 -736
-153 -372 -10 -657 51 -974 206 -630 309 -1053 886 -1156 1576 -38 260 -21
586 46 839 210 802 886 1409 1710 1536 157 24 441 26 597 4z"/>
</g>
</svg>
