<?xml version="1.0" standalone="no"?>
<!DOCTYPE svg PUBLIC "-//W3C//DTD SVG 20010904//EN"
 "http://www.w3.org/TR/2001/REC-SVG-20010904/DTD/svg10.dtd">
<svg version="1.0" xmlns="http://www.w3.org/2000/svg"
 width="25" height="25" viewBox="0 0 512.000000 512.000000" fill="white"
 preserveAspectRatio="xMidYMid meet">

<g transform="translate(0.000000,512.000000) scale(0.100000,-0.100000)"
 stroke="none">
<path d="M139 4403 c77 -104 386 -520 688 -925 l548 -738 309 -1092 c169 -601
312 -1097 316 -1101 4 -4 693 884 1530 1975 838 1091 1539 2002 1558 2026 l34
42 -2561 0 -2561 0 139 -187z m4020 -117 c-2 -3 -589 -293 -1303 -645 l-1299
-640 -47 62 c-26 34 -237 319 -470 632 -233 314 -427 576 -433 583 -7 9 349
12 1773 12 981 0 1781 -2 1779 -4z m125 -288 c-28 -47 -2158 -2809 -2161
-2802 -79 262 -430 1531 -425 1536 9 9 2573 1276 2585 1277 5 1 5 -5 1 -11z"/>
</g>
</svg>
