<?xml version="1.0" standalone="no"?>
<!DOCTYPE svg PUBLIC "-//W3C//DTD SVG 20010904//EN"
 "http://www.w3.org/TR/2001/REC-SVG-20010904/DTD/svg10.dtd">
<svg version="1.0" xmlns="http://www.w3.org/2000/svg"
 width="24px" height="24px" viewBox="0 0 512.000000 512.000000" fill="white"
 preserveAspectRatio="xMidYMid meet">

<g transform="translate(0.000000,512.000000) scale(0.100000,-0.100000)"
fill="" stroke="none">
<path d="M651 5105 c-150 -33 -254 -83 -363 -175 -117 -97 -209 -237 -255
-385 l-28 -90 0 -1895 0 -1895 28 -90 c80 -259 283 -462 542 -542 l90 -28
1895 0 1895 0 90 28 c259 80 462 283 542 542 l28 90 0 1895 0 1895 -28 90
c-80 259 -283 462 -542 542 l-90 28 -1870 2 c-1567 1 -1880 -1 -1934 -12z
m3770 -319 c94 -20 164 -59 235 -130 71 -71 110 -141 130 -235 21 -99 21
-3623 0 -3722 -20 -94 -59 -164 -130 -235 -71 -71 -141 -110 -235 -130 -99
-21 -3623 -21 -3722 0 -94 20 -164 59 -235 130 -71 71 -110 141 -130 235 -21
99 -21 3623 0 3722 20 94 59 164 130 235 70 70 141 110 230 129 93 20 3632 21
3727 1z"/>
<path d="M2400 3440 l0 -720 -720 0 -720 0 0 -160 0 -160 720 0 720 0 0 -720
0 -720 160 0 160 0 0 720 0 720 720 0 720 0 0 160 0 160 -720 0 -720 0 0 720
0 720 -160 0 -160 0 0 -720z"/>
</g>
</svg>
