<?xml version="1.0" standalone="no"?>
<!DOCTYPE svg PUBLIC "-//W3C//DTD SVG 20010904//EN"
 "http://www.w3.org/TR/2001/REC-SVG-20010904/DTD/svg10.dtd">
<svg version="1.0" xmlns="http://www.w3.org/2000/svg"
 width="25" height="25" viewBox="0 0 512.000000 456.000000"
 preserveAspectRatio="xMidYMid meet">

<g transform="translate(0.000000,456.000000) scale(0.100000,-0.100000)"
fill="red" stroke="none">
<path d="M1296 4549 c-381 -33 -751 -241 -978 -550 -210 -285 -310 -603 -310
-979 1 -331 81 -604 270 -924 149 -251 445 -581 845 -942 124 -113 1043 -909
1243 -1077 111 -93 278 -93 388 0 195 165 1062 914 1201 1038 720 643 1046
1108 1136 1624 26 148 28 390 5 543 -97 634 -519 1108 -1107 1243 -317 72
-693 13 -963 -151 -142 -87 -348 -274 -432 -393 -16 -22 -31 -41 -34 -41 -3 0
-18 19 -34 41 -16 23 -70 84 -120 137 -248 259 -522 398 -850 431 -119 12
-129 12 -260 0z"/>
</g>
</svg>
