<svg width="60" height="60" viewBox="0 0 60 60" fill="none" xmlns="http://www.w3.org/2000/svg">
<path d="M30 7.50004C34.4501 7.50004 38.8002 8.81964 42.5003 11.292C46.2004 13.7643 49.0843 17.2783 50.7873 21.3897C52.4903 25.501 52.9358 30.025 52.0677 34.3896C51.1995 38.7541 49.0566 42.7633 45.9099 45.9099C42.7632 49.0566 38.7541 51.1995 34.3895 52.0677C30.025 52.9359 25.501 52.4903 21.3896 50.7873C17.2783 49.0844 13.7643 46.2005 11.2919 42.5004C8.8196 38.8003 7.5 34.4501 7.5 30C7.53282 24.0428 9.91389 18.3389 14.1264 14.1264C18.3388 9.91393 24.0427 7.53287 30 7.50004ZM30 2.50004C24.561 2.50004 19.2442 4.11289 14.7218 7.13463C10.1995 10.1564 6.67472 14.4513 4.59331 19.4762C2.5119 24.5012 1.96731 30.0305 3.0284 35.365C4.0895 40.6995 6.70862 45.5995 10.5546 49.4455C14.4005 53.2914 19.3005 55.9105 24.635 56.9716C29.9695 58.0327 35.4988 57.4881 40.5238 55.4067C45.5488 53.3253 49.8437 49.8006 52.8654 45.2782C55.8872 40.7559 57.5 35.439 57.5 30C57.5165 26.3841 56.8165 22.8006 55.4404 19.4567C54.0643 16.1128 52.0392 13.0746 49.4823 10.5177C46.9254 7.96079 43.8873 5.93579 40.5433 4.55965C37.1994 3.1835 33.616 2.48349 30 2.50004Z" fill="black"/>
<path d="M41.625 16.6251L25 25.0001L16.625 41.6251C16.5403 41.869 16.526 42.132 16.5837 42.3837C16.6415 42.6354 16.769 42.8658 16.9516 43.0484C17.1342 43.2311 17.3646 43.3586 17.6164 43.4163C17.8681 43.4741 18.131 43.4598 18.375 43.3751L35 35.0001L43.375 18.3751C43.4597 18.1311 43.474 17.8682 43.4163 17.6164C43.3585 17.3647 43.231 17.1343 43.0484 16.9517C42.8657 16.769 42.6354 16.6415 42.3836 16.5838C42.1319 16.526 41.869 16.5403 41.625 16.6251ZM30 32.5001C29.5055 32.5001 29.0222 32.3534 28.6111 32.0787C28.1999 31.804 27.8795 31.4136 27.6903 30.9568C27.5011 30.4999 27.4516 29.9973 27.548 29.5123C27.6445 29.0274 27.8826 28.5819 28.2322 28.2323C28.5819 27.8827 29.0273 27.6446 29.5123 27.5481C29.9972 27.4516 30.4999 27.5011 30.9567 27.6904C31.4135 27.8796 31.804 28.2 32.0787 28.6111C32.3534 29.0223 32.5 29.5056 32.5 30.0001C32.5 30.6631 32.2366 31.299 31.7678 31.7678C31.2989 32.2367 30.663 32.5001 30 32.5001Z" fill="black"/>
</svg>
