<svg width="24" height="24" viewBox="0 0 24 24" fill="none" xmlns="http://www.w3.org/2000/svg">
<path d="M14.002 4.42621C15.8647 2.73252 18.278 2.45822 20.0996 3.55316V3.55414C21.9546 4.67026 22.9572 7.01944 22.4834 9.31683L22.4326 9.53851V9.53949C21.9444 11.5062 20.8382 13.1417 19.458 14.7221L18.8506 15.3969C16.8957 17.5117 14.6309 19.2971 12.2539 21.0278C9.20075 18.7952 6.32529 16.5202 4.12109 13.5795L3.67676 12.9643L3.30469 12.4067C2.5356 11.1953 2.00963 9.95869 1.91504 8.60297L1.90137 8.28754C1.85873 6.12549 3.0417 4.18746 4.76465 3.35687L4.93262 3.27972C6.62903 2.54726 8.72044 2.90169 10.3271 4.27386L10.6416 4.56097C10.9634 4.87645 11.2943 5.19448 11.6641 5.55316L12.3145 6.18304L12.9404 5.52972C13.2561 5.20046 13.4912 4.92996 13.7422 4.67621L14.002 4.42621Z" fill="#FE0135" stroke="#FE0135" stroke-width="1.8"/>
</svg>
